<?xml version="1.0" encoding="utf-8"?>
<svg version="1.1" xmlns:xlink="http://www.w3.org/1999/xlink" width="12px" height="12px" viewBox="164 88.5  12 12" xmlns="http://www.w3.org/2000/svg">
  <path d="M 170 88.5  C 173.36 88.5  176 91.14  176 94.5  C 176 97.86  173.36 100.5  170 100.5  C 166.64 100.5  164 97.86  164 94.5  C 164 91.14  166.64 88.5  170 88.5  Z " fill-rule="nonzero" fill="#ffffff" stroke="none" />
  <path d="M 170 89  C 173.08 89  175.5 91.42  175.5 94.5  C 175.5 97.58  173.08 100  170 100  C 166.92 100  164.5 97.58  164.5 94.5  C 164.5 91.42  166.92 89  170 89  Z " stroke-width="1" stroke="#797979" fill="none" />
  <path d="M 170 97.5  C 168.32 97.5  167 96.18  167 94.5  C 167 92.82  168.32 91.5  170 91.5  C 171.68 91.5  173 92.82  173 94.5  C 173 96.18  171.68 97.5  170 97.5  " fill-rule="nonzero" fill="#797979" stroke="none" />
</svg>