<?xml version="1.0" encoding="utf-8"?>
<svg version="1.1" xmlns:xlink="http://www.w3.org/1999/xlink" width="12px" height="12px" viewBox="675 106  12 12" xmlns="http://www.w3.org/2000/svg">
  <path d="M 681 106  C 684.36 106  687 108.64  687 112  C 687 115.36  684.36 118  681 118  C 677.64 118  675 115.36  675 112  C 675 108.64  677.64 106  681 106  Z " fill-rule="nonzero" fill="#f0f0f0" stroke="none" />
  <path d="M 681 106.5  C 684.08 106.5  686.5 108.92  686.5 112  C 686.5 115.08  684.08 117.5  681 117.5  C 677.92 117.5  675.5 115.08  675.5 112  C 675.5 108.92  677.92 106.5  681 106.5  Z " stroke-width="1" stroke="#797979" fill="none" />
  <path d="M 681 115  C 679.32 115  678 113.68  678 112  C 678 110.32  679.32 109  681 109  C 682.68 109  684 110.32  684 112  C 684 113.68  682.68 115  681 115  " fill-rule="nonzero" fill="#797979" stroke="none" />
</svg>