<?xml version="1.0" encoding="utf-8"?>
<svg version="1.1" xmlns:xlink="http://www.w3.org/1999/xlink" width="12px" height="12px" viewBox="632 106  12 12" xmlns="http://www.w3.org/2000/svg">
  <path d="M 638 106  C 641.36 106  644 108.64  644 112  C 644 115.36  641.36 118  638 118  C 634.64 118  632 115.36  632 112  C 632 108.64  634.64 106  638 106  Z " fill-rule="nonzero" fill="#f0f0f0" stroke="none" />
  <path d="M 638 106.5  C 641.08 106.5  643.5 108.92  643.5 112  C 643.5 115.08  641.08 117.5  638 117.5  C 634.92 117.5  632.5 115.08  632.5 112  C 632.5 108.92  634.92 106.5  638 106.5  Z " stroke-width="1" stroke="#797979" fill="none" />
  <path d="M 638 115  C 636.32 115  635 113.68  635 112  C 635 110.32  636.32 109  638 109  C 639.68 109  641 110.32  641 112  C 641 113.68  639.68 115  638 115  " fill-rule="nonzero" fill="#797979" stroke="none" />
</svg>