<?xml version="1.0" encoding="utf-8"?>
<svg version="1.1" xmlns:xlink="http://www.w3.org/1999/xlink" width="12px" height="12px" viewBox="297 88.5  12 12" xmlns="http://www.w3.org/2000/svg">
  <path d="M 303 88.5  C 306.36 88.5  309 91.14  309 94.5  C 309 97.86  306.36 100.5  303 100.5  C 299.64 100.5  297 97.86  297 94.5  C 297 91.14  299.64 88.5  303 88.5  Z " fill-rule="nonzero" fill="#f0f0f0" stroke="none" />
  <path d="M 303 89  C 306.08 89  308.5 91.42  308.5 94.5  C 308.5 97.58  306.08 100  303 100  C 299.92 100  297.5 97.58  297.5 94.5  C 297.5 91.42  299.92 89  303 89  Z " stroke-width="1" stroke="#797979" fill="none" />
  <path d="M 303 97.5  C 301.32 97.5  300 96.18  300 94.5  C 300 92.82  301.32 91.5  303 91.5  C 304.68 91.5  306 92.82  306 94.5  C 306 96.18  304.68 97.5  303 97.5  " fill-rule="nonzero" fill="#797979" stroke="none" />
</svg>